<svg width="70" height="20" viewBox="0 0 70 20" fill="none" xmlns="http://www.w3.org/2000/svg">
<path d="M3.7075 19.024C3.2595 19.024 2.7715 18.928 2.2435 18.736C1.7315 18.544 1.1635 18.216 0.5395 17.752L2.1955 14.056C2.2755 14.216 2.4275 14.36 2.6515 14.488C2.8915 14.6 3.1475 14.656 3.4195 14.656C3.6275 14.656 3.8115 14.488 3.9715 14.152C4.1315 13.816 4.2595 13.408 4.3555 12.928C4.4675 12.448 4.5555 12 4.6195 11.584C4.6835 11.152 4.7235 10.848 4.7395 10.672C4.8995 9.888 5.0515 9.112 5.1955 8.344C5.3395 7.576 5.4755 6.8 5.6035 6.016C5.7315 5.248 5.8755 4.48 6.0355 3.712C6.2115 2.944 6.3875 2.176 6.5635 1.408C7.2835 1.344 7.9875 1.248 8.6755 1.12C9.3795 0.975999 10.0835 0.808 10.7875 0.615999C10.5475 1.432 10.2995 2.36 10.0435 3.4C9.7875 4.424 9.5395 5.488 9.2995 6.592C9.0595 7.696 8.8275 8.768 8.6035 9.808C8.3955 10.848 8.2115 11.784 8.0515 12.616C7.9075 13.288 7.7315 14 7.5235 14.752C7.3155 15.488 7.0435 16.184 6.7075 16.84C6.3715 17.48 5.9555 18.008 5.4595 18.424C4.9795 18.824 4.3955 19.024 3.7075 19.024ZM7.81862 19.024C8.29863 16.864 8.75463 14.752 9.18663 12.688C9.36263 11.856 9.53863 10.968 9.71463 10.024C9.90663 9.064 10.0986 8.096 10.2906 7.12C10.4826 6.144 10.6586 5.224 10.8186 4.36C10.9786 3.48 11.1066 2.712 11.2026 2.056C11.8426 1.864 12.5306 1.688 13.2666 1.528C14.0186 1.368 14.6906 1.288 15.2826 1.288C16.2426 1.288 17.0026 1.496 17.5626 1.912C18.1226 2.312 18.5226 2.856 18.7626 3.544C19.0026 4.232 19.1226 4.984 19.1226 5.8C19.1226 6.696 18.9546 7.56 18.6186 8.392C18.2986 9.208 17.8586 9.944 17.2986 10.6C16.7546 11.256 16.1226 11.776 15.4026 12.16C14.6986 12.544 13.9626 12.736 13.1946 12.736H12.9306C12.8026 13.28 12.6826 13.872 12.5706 14.512C12.4586 15.152 12.3626 15.744 12.2826 16.288C12.2186 16.608 12.1626 16.928 12.1146 17.248C12.0666 17.568 12.0186 17.888 11.9706 18.208L7.81862 19.024ZM13.4106 10.216C13.7786 10.12 14.1466 9.88 14.5146 9.496C14.8826 9.096 15.1866 8.592 15.4266 7.984C15.6666 7.376 15.7866 6.712 15.7866 5.992C15.7866 5.4 15.6506 4.952 15.3786 4.648C15.1226 4.344 14.8346 4.192 14.5146 4.192C14.3386 5.248 14.1626 6.248 13.9866 7.192C13.8106 8.136 13.6186 9.144 13.4106 10.216ZM16.2644 18.856C16.9684 16.712 17.6404 14.624 18.2804 12.592C18.5524 11.76 18.8324 10.872 19.1204 9.928C19.4084 8.984 19.6964 8.04 19.9844 7.096C20.2724 6.136 20.5444 5.216 20.8004 4.336C21.0564 3.456 21.2724 2.672 21.4484 1.984C22.3284 1.984 23.1604 1.936 23.9444 1.84C24.3444 1.792 24.7524 1.744 25.1684 1.696C25.6004 1.648 26.0404 1.608 26.4884 1.576L26.3444 2.752C26.3124 2.976 26.2804 3.208 26.2484 3.448C26.2164 3.672 26.1844 3.904 26.1524 4.144C26.1204 4.384 26.0804 4.632 26.0324 4.888C25.9844 5.128 25.9444 5.376 25.9124 5.632C25.8484 6.128 25.7524 6.824 25.6244 7.72C25.4964 8.6 25.3444 9.56 25.1684 10.6H25.4804C25.9444 9.384 26.3284 8.376 26.6324 7.576C26.9364 6.76 27.1844 6.096 27.3764 5.584C27.6484 4.832 27.9444 4.072 28.2644 3.304C28.5844 2.536 28.8484 1.944 29.0564 1.528C29.4404 1.496 29.8964 1.448 30.4244 1.384C30.9684 1.304 31.5124 1.216 32.0564 1.12C32.6164 1.024 33.0964 0.943999 33.4964 0.879999C33.2724 2.224 33.0644 3.584 32.8724 4.96C32.6964 6.32 32.5364 7.624 32.3924 8.872C32.2644 10.104 32.1524 11.216 32.0564 12.208C31.9604 13.2 31.8724 14.184 31.7924 15.16C31.7124 16.12 31.6324 17.072 31.5524 18.016L27.3764 18.76C27.3764 18.728 27.4004 18.368 27.4484 17.68C27.4964 16.992 27.5764 16.136 27.6884 15.112C27.8004 14.088 27.9124 13.12 28.0244 12.208C28.1364 11.28 28.2484 10.52 28.3604 9.928H28.1444C27.7444 11.144 27.2564 12.472 26.6804 13.912C26.1204 15.352 25.5684 16.944 25.0244 18.688C24.4644 18.704 23.9844 18.728 23.5844 18.76C23.1844 18.776 22.7204 18.8 22.1924 18.832L22.9604 9.928H22.6004C22.5844 10.104 22.5124 10.448 22.3844 10.96C22.2564 11.456 22.1044 12.032 21.9284 12.688C21.7524 13.328 21.5684 13.968 21.3764 14.608C20.6564 17.12 20.2724 18.448 20.2244 18.592L16.2644 18.856ZM35.8038 19.432C35.3238 19.432 34.8358 19.328 34.3398 19.12C33.8438 18.912 33.4278 18.592 33.0918 18.16C32.7558 17.728 32.5878 17.176 32.5878 16.504V16.312C32.5878 16.232 32.5958 16.168 32.6118 16.12C32.6598 15.704 32.7238 15.16 32.8038 14.488C32.8998 13.816 33.0118 13.088 33.1398 12.304C33.2678 11.504 33.3958 10.712 33.5238 9.928C33.6678 9.144 33.7958 8.432 33.9078 7.792C34.1478 6.512 34.3398 5.48 34.4838 4.696C34.6278 3.912 34.7398 3.312 34.8198 2.896C34.9158 2.464 34.9878 2.144 35.0358 1.936C35.2118 1.92 35.3958 1.904 35.5878 1.888C35.7958 1.856 36.0118 1.832 36.2358 1.816C36.4598 1.784 36.6758 1.76 36.8838 1.744C37.1078 1.728 37.3238 1.712 37.5318 1.696L38.9958 1.552C38.7878 2.528 38.5878 3.456 38.3958 4.336C38.2198 5.2 38.0518 6.024 37.8918 6.808L36.7878 12.112C36.6918 12.512 36.6198 12.848 36.5718 13.12C36.5078 13.376 36.4358 13.704 36.3558 14.104C36.2918 14.488 36.2598 14.84 36.2598 15.16C36.2598 15.416 36.3238 15.632 36.4518 15.808C36.5798 15.968 36.7398 16.048 36.9318 16.048C37.2038 16.048 37.4278 15.944 37.6038 15.736C37.7798 15.528 37.9238 15.272 38.0358 14.968C38.1478 14.664 38.2358 14.36 38.2998 14.056C38.3638 13.736 38.4198 13.48 38.4678 13.288C38.6278 12.552 38.7718 11.84 38.8997 11.152C39.0438 10.448 39.1878 9.704 39.3318 8.92C39.4918 8.136 39.6678 7.232 39.8598 6.208C39.9878 5.504 40.1158 4.792 40.2438 4.072C40.3878 3.336 40.5238 2.592 40.6518 1.84L44.2998 1.6C44.2998 1.6 44.2278 1.984 44.0838 2.752C43.9398 3.52 43.7318 4.68 43.4598 6.232C43.3478 6.824 43.2198 7.488 43.0758 8.224C42.9478 8.96 42.8038 9.704 42.6438 10.456C42.4838 11.208 42.3318 11.92 42.1878 12.592C42.0598 13.264 41.9398 13.84 41.8278 14.32C41.5078 15.632 41.0118 16.664 40.3398 17.416C39.6678 18.152 38.9238 18.672 38.1078 18.976C37.3078 19.28 36.5398 19.432 35.8038 19.432ZM46.0024 19.048C45.3624 19.048 44.7224 18.88 44.0824 18.544C43.4424 18.192 42.8264 17.64 42.2344 16.888L44.0104 13.408C44.1864 13.712 44.4424 14 44.7784 14.272C45.1304 14.544 45.4984 14.76 45.8824 14.92C46.2664 15.08 46.5944 15.16 46.8664 15.16C47.2824 15.16 47.6744 15.032 48.0424 14.776C48.4264 14.52 48.6184 14.176 48.6184 13.744C48.6184 13.184 48.3624 12.672 47.8504 12.208C47.3384 11.744 46.7624 11.288 46.1224 10.84C45.4984 10.392 44.9224 9.888 44.3944 9.328C43.8824 8.752 43.6264 8.096 43.6264 7.36C43.6264 6.528 43.8664 5.76 44.3464 5.056C44.8264 4.336 45.4504 3.712 46.2184 3.184C46.9864 2.64 47.8024 2.224 48.6664 1.936C49.5464 1.632 50.3784 1.48 51.1624 1.48C51.7224 1.48 52.2424 1.576 52.7224 1.768C53.2024 1.944 53.5864 2.24 53.8744 2.656C54.1624 3.072 54.3064 3.632 54.3064 4.336C54.3064 4.448 54.2984 4.56 54.2824 4.672C54.2824 4.784 54.2744 4.896 54.2584 5.008C54.2424 5.12 54.2184 5.24 54.1864 5.368C54.1704 5.48 54.1544 5.6 54.1384 5.728L50.6584 6.736C50.6904 6.608 50.7144 6.48 50.7304 6.352C50.7624 6.224 50.7784 6.096 50.7784 5.968C50.7784 5.488 50.6904 5.144 50.5144 4.936C50.3544 4.712 50.1384 4.6 49.8664 4.6C49.7224 4.6 49.5144 4.68 49.2424 4.84C48.9704 4.984 48.7224 5.192 48.4984 5.464C48.2904 5.72 48.1864 6.008 48.1864 6.328C48.1864 6.856 48.4024 7.296 48.8344 7.648C49.2824 7.984 49.7944 8.328 50.3704 8.68C50.6424 8.84 50.9464 9.096 51.2824 9.448C51.6184 9.784 51.9064 10.248 52.1464 10.84C52.4024 11.416 52.5304 12.16 52.5304 13.072C52.5304 14.256 52.2344 15.296 51.6424 16.192C51.0664 17.088 50.2824 17.792 49.2904 18.304C48.2984 18.8 47.2024 19.048 46.0024 19.048ZM52.3309 18.976C52.5549 18.048 52.7789 17 53.0029 15.832C53.2269 14.648 53.4509 13.424 53.6749 12.16C53.8989 10.896 54.1069 9.68 54.2989 8.512C54.4749 7.488 54.6429 6.448 54.8029 5.392C54.9789 4.336 55.1469 3.272 55.3069 2.2L59.0509 1.6L57.9709 7.912C57.7309 9.4 57.5149 10.736 57.3229 11.92C57.1469 13.104 56.9709 14.224 56.7949 15.28C56.6349 16.336 56.4669 17.416 56.2909 18.52C55.9869 18.52 55.6189 18.544 55.1869 18.592C54.7549 18.624 54.3229 18.672 53.8909 18.736C53.4589 18.784 53.0909 18.832 52.7869 18.88C52.4989 18.928 52.3469 18.96 52.3309 18.976ZM61.4305 19.048C60.4225 19.048 59.5985 18.576 58.9585 17.632C58.3185 16.688 57.9985 15.392 57.9985 13.744C57.9985 12.24 58.2065 10.76 58.6225 9.304C59.0385 7.832 59.6225 6.512 60.3745 5.344C61.1265 4.176 62.0145 3.24 63.0385 2.536C64.0785 1.816 65.2225 1.456 66.4705 1.456C67.2545 1.456 67.9265 1.76 68.4865 2.368C69.0465 2.976 69.3265 3.792 69.3265 4.816V5.104C69.3265 5.168 69.3265 5.224 69.3265 5.272C69.3265 5.32 69.3185 5.376 69.3025 5.44L66.1585 6.28C65.9665 5.88 65.7425 5.68 65.4865 5.68C65.1025 5.68 64.6945 5.992 64.2625 6.616C63.8465 7.24 63.4465 7.984 63.0625 8.848C62.8065 9.424 62.5745 10.016 62.3665 10.624C62.1745 11.232 62.0225 11.8 61.9105 12.328C61.7985 12.856 61.7425 13.288 61.7425 13.624C61.7425 14.12 61.8145 14.48 61.9585 14.704C62.0705 14.912 62.2465 15.016 62.4865 15.016C62.7265 15.016 62.9905 14.904 63.2785 14.68C63.5665 14.44 63.8305 14.144 64.0705 13.792C64.3265 13.44 64.4945 13.088 64.5745 12.736L67.3105 13.84C66.5265 15.632 65.5905 16.952 64.5025 17.8C63.4305 18.632 62.4065 19.048 61.4305 19.048Z" fill="white"/>
</svg>
