<svg width="64" height="64" viewBox="0 0 64 64" fill="none" xmlns="http://www.w3.org/2000/svg">
<circle cx="32" cy="32" r="32" fill="white"/>
<path d="M22.1317 26.216C22.1317 25.656 22.0997 25.208 22.0357 24.872C21.9877 24.52 21.8837 24.248 21.7237 24.056C21.5637 23.848 21.3317 23.712 21.0277 23.648C20.7397 23.568 20.3477 23.512 19.8517 23.48V22.52H27.9397V23.48C27.4437 23.496 27.0437 23.544 26.7397 23.624C26.4357 23.704 26.2037 23.848 26.0437 24.056C25.8837 24.264 25.7797 24.552 25.7317 24.92C25.6837 25.288 25.6597 25.776 25.6597 26.384V41.048C25.6597 43.064 25.1477 44.6 24.1237 45.656C23.0997 46.712 21.5717 47.24 19.5397 47.24C18.0837 47.24 16.9637 46.992 16.1797 46.496C15.3797 46 14.9797 45.368 14.9797 44.6C14.9797 44.136 15.1317 43.776 15.4357 43.52C15.7237 43.28 16.0837 43.16 16.5157 43.16C16.8837 43.16 17.1797 43.256 17.4037 43.448C17.6117 43.64 17.8757 44 18.1957 44.528C18.5157 45.056 18.8037 45.408 19.0597 45.584C19.3157 45.76 19.6277 45.848 19.9957 45.848C20.6837 45.848 21.2117 45.472 21.5797 44.72C21.9477 43.968 22.1317 42.912 22.1317 41.552V26.216ZM45.5852 27.656C45.5852 29.384 44.9132 30.704 43.5692 31.616C42.2252 32.512 40.2732 32.96 37.7132 32.96H35.6732V37.184C35.6732 37.792 35.7132 38.288 35.7932 38.672C35.8732 39.04 36.0412 39.328 36.2972 39.536C36.5532 39.744 36.9052 39.88 37.3532 39.944C37.8012 40.008 38.4012 40.04 39.1532 40.04V41H29.6252V40.04C30.1532 40.024 30.5852 39.976 30.9212 39.896C31.2572 39.816 31.5132 39.68 31.6892 39.488C31.8652 39.296 31.9852 39.024 32.0492 38.672C32.1132 38.32 32.1452 37.864 32.1452 37.304V26.216C32.1452 25.656 32.1132 25.208 32.0492 24.872C32.0012 24.52 31.8972 24.248 31.7372 24.056C31.5772 23.848 31.3452 23.712 31.0412 23.648C30.7532 23.568 30.3692 23.512 29.8892 23.48V22.52H38.1932C40.6252 22.52 42.4652 22.952 43.7132 23.816C44.9612 24.68 45.5852 25.96 45.5852 27.656ZM35.6732 31.52H37.2332C38.7852 31.52 39.9212 31.208 40.6412 30.584C41.3612 29.96 41.7212 28.976 41.7212 27.632C41.7212 26.432 41.4172 25.504 40.8092 24.848C40.2012 24.192 39.2492 23.864 37.9532 23.864H36.1052C35.8172 23.864 35.6732 24 35.6732 24.272V31.52Z" fill="#0A0A0A"/>
</svg>
